<svg width="1024" height="1024" viewBox="0 0 1024 1024" xmlns="http://www.w3.org/2000/svg">
  <!-- Transparent background — icon at 55% size for Android adaptive safe zone -->
  <!-- Scale: 560/46=12.174, offset=(1024-560)/2=232 -->
  <g transform="translate(232, 232) scale(12.174)">
    <svg width="46" height="46" viewBox="0 0 46 46" fill="none" xmlns="http://www.w3.org/2000/svg">
<path d="M8.87949 10.8538C9.01439 5.95244 11.6864 2.51207 16.7265 2.03488C20.6486 1.66357 23.8021 4.32591 26.5885 6.72474C26.8704 6.63715 27.1889 6.51862 27.4648 6.40995C31.7923 4.70474 36.8701 6.06302 39.0538 10.3565C39.762 11.748 39.9927 12.8688 40.1982 14.3941L40.2117 14.4249C42.1178 15.5569 43.4938 17.0097 44.0512 19.2081C44.8846 22.4964 43.3964 25.7594 40.9234 27.9312L40.9142 27.955C41.2749 29.3518 41.41 30.5954 41.3978 32.0231C41.3622 36.1585 38.2574 39.0995 34.4187 40.0797C33.0866 40.4199 32.0143 40.4612 30.6326 40.3335C30.8599 40.0311 31.2561 39.4975 31.4325 39.1825C31.1088 39.289 30.9346 39.985 30.5796 40.2188C30.2142 40.2713 29.9088 40.1236 29.5703 40.0697C27.5461 39.7482 25.5718 38.7771 23.8886 37.5758C23.4584 37.9004 22.9922 38.307 22.5582 38.6012C20.4374 40.038 18.5847 40.7953 16.0127 40.8679L15.9884 40.8635C15.2286 40.8835 14.4693 40.8127 13.7263 40.6528C11.493 40.1801 9.26574 38.9418 8.0183 36.9888C6.21019 34.1577 6.5076 31.079 7.15958 27.9922L7.15702 27.9713C7.20829 27.828 7.25999 27.5622 7.29362 27.4105C7.53732 26.3112 7.85389 25.2277 8.11306 24.1332L8.11792 24.0832C7.42071 22.9704 6.9038 21.4014 6.95503 20.073C7.01116 18.6183 7.9019 16.8379 8.97329 15.8725L8.98129 15.8484C8.98385 15.5788 8.96421 15.2578 8.94383 14.9882C8.8399 13.6109 8.83082 12.27 8.85481 10.8904L8.87949 10.8538Z" fill="#59D1A6"/><path d="M8.87948 10.8538C9.01439 5.95244 11.6864 2.51207 16.7265 2.03488C20.6486 1.66357 23.8021 4.32591 26.5885 6.72474L26.5876 6.74785C25.6926 7.14419 24.8218 7.59283 23.9794 8.09149C23.5236 8.35905 22.1424 9.3213 21.807 9.42271L21.8011 9.43092C23.0961 9.70395 26.0367 11.2838 26.8839 12.2358C25.2463 12.6055 23.3711 13.2376 21.8751 14.0106C23.7621 14.7314 25.5696 15.8316 26.5533 17.6782C26.535 17.6931 26.5168 17.7081 26.4985 17.723C24.4034 19.0764 21.4769 20.0649 21.1034 22.9103C20.7922 25.2807 22.2584 27.7551 24.1371 29.1148C24.2757 29.2155 24.5242 29.3724 24.5842 29.5186C23.7677 30.5858 20.669 31.2872 20.2951 32.0057C21.7268 33.4595 23.8317 35.4129 25.9246 35.6832C25.7025 35.9221 25.474 36.1546 25.239 36.3805C24.983 36.5952 24.111 37.4276 23.912 37.5241L23.8886 37.5758C23.4584 37.9004 22.9922 38.307 22.5582 38.6012C20.4374 40.038 18.5847 40.7953 16.0127 40.8679L15.9884 40.8635C15.2286 40.8835 14.4693 40.8127 13.7263 40.6528C11.493 40.1801 9.26574 38.9418 8.0183 36.9888C6.21019 34.1577 6.5076 31.079 7.15958 27.9922L7.15702 27.9713C7.20829 27.828 7.25999 27.5622 7.29362 27.4105C7.53732 26.3112 7.85389 25.2277 8.11306 24.1332L8.11792 24.0832C7.42071 22.9704 6.9038 21.4014 6.95503 20.073C7.01116 18.6183 7.9019 16.8379 8.97329 15.8725L8.98128 15.8484C8.98385 15.5788 8.96421 15.2578 8.94383 14.9882C8.8399 13.6109 8.83082 12.27 8.85481 10.8904L8.87948 10.8538Z" fill="#5BC8CE"/><path d="M8.11306 24.1332C9.83061 26.9678 11.6644 29.5515 14.5855 31.3262C14.9885 31.5712 15.7372 31.9371 16.1892 32.0609C16.6176 32.2521 17.3033 32.4015 17.7701 32.4732C18.3049 32.5049 20.0292 32.6235 20.3723 32.2316L20.4833 32.1857C21.9149 33.6395 23.8317 35.4129 25.9246 35.6832C25.7025 35.9221 25.474 36.1546 25.239 36.3805C24.983 36.5952 24.111 37.4276 23.912 37.5241L23.8886 37.5758C23.4584 37.9004 22.9922 38.307 22.5582 38.6012C20.4374 40.038 18.5847 40.7953 16.0127 40.8679L15.9884 40.8635C15.2286 40.8835 14.4693 40.8127 13.7263 40.6528C11.493 40.1801 9.26574 38.9418 8.0183 36.9888C6.21019 34.1577 6.5076 31.079 7.15958 27.9922L7.15702 27.9713C7.20829 27.828 7.25999 27.5622 7.29362 27.4105C7.53732 26.3112 7.85389 25.2277 8.11306 24.1332Z" fill="#3D96CD"/><path d="M7.15958 27.9922C7.7185 28.2569 8.25566 28.6643 8.80193 28.9616C10.5807 29.9299 12.226 31.2049 13.1389 33.0597C14.2448 35.3069 14.5229 37.8829 15.6337 40.1292C15.7428 40.3499 15.9046 40.6384 15.9884 40.8635C15.2286 40.8835 14.4693 40.8127 13.7263 40.6528C11.493 40.1801 9.26574 38.9418 8.0183 36.9888C6.21019 34.1577 6.5076 31.0789 7.15958 27.9922Z" fill="#73A9F6"/><path d="M20.467 32.1804C21.9274 33.6095 23.8317 35.413 25.9247 35.6833C25.7026 35.9222 25.4741 36.1547 25.239 36.3806C24.9831 36.5952 24.1111 37.4277 23.9121 37.5242C23.3925 37.1162 22.829 36.7669 22.2954 36.3128C21.4013 35.552 20.5061 34.7726 19.6102 34.0166C19.2738 33.7329 17.982 32.7622 17.7701 32.4733C18.1772 32.4974 19.6271 32.5715 20.467 32.1804Z" fill="#7CB685"/><path d="M8.87952 10.8538C9.01442 5.95244 11.6864 2.51207 16.7265 2.03488C20.6486 1.66357 23.8022 4.32591 26.5885 6.72474L26.5876 6.74785C25.6926 7.14419 24.8219 7.59283 23.9794 8.09149C23.5236 8.35905 22.1424 9.3213 21.807 9.4227C21.0932 9.21824 20.4222 9.02806 19.6906 8.90497C16.2002 8.31755 12.5419 9.04609 9.39069 10.6016C9.23041 10.6807 9.04101 10.7861 8.87952 10.8538Z" fill="#5BC8CE"/><path d="M8.87945 10.8538C9.04094 10.7861 9.23034 10.6808 9.39062 10.6016C12.5418 9.0461 16.2001 8.31756 19.6906 8.90498C20.4221 9.02807 21.0932 9.21824 21.807 9.42271L21.8011 9.43092C23.096 9.70395 26.0366 11.2838 26.8839 12.2358C25.2463 12.6055 23.3711 13.2376 21.8751 14.0106L21.8317 14.021C20.0372 13.3998 18.9929 13.3546 17.1739 13.189L17.0426 13.1995C14.217 13.1996 11.061 13.7935 8.98125 15.8484C8.98381 15.5788 8.96417 15.2578 8.94379 14.9882C8.83987 13.6109 8.83079 12.2701 8.85477 10.8904L8.87945 10.8538Z" fill="#2FA9C1"/><path d="M21.8012 9.43091C23.0961 9.70394 26.0367 11.2838 26.8839 12.2358C25.2463 12.6055 23.3711 13.2376 21.8751 14.0106L21.8317 14.021C20.0372 13.3998 18.9929 13.3546 17.174 13.189C17.299 12.9946 17.6518 12.7102 17.8331 12.5434C19.0759 11.4005 20.4346 10.4194 21.8012 9.43091Z" fill="#76DCA3"/><path d="M29.7998 15.4337C30.8447 14.9698 31.8297 14.7602 32.9424 15.1827C33.9152 15.5613 34.696 16.3124 35.1122 17.2694C35.7883 18.7895 35.4246 20.4409 34.8324 21.9216C34.7533 22.1194 34.487 22.7723 34.3814 22.9321L34.1968 23.3459C33.9991 23.6289 33.7075 24.3285 33.5598 24.6608C32.9589 26.0114 32.4501 27.4161 31.4552 28.5418C31.3583 28.6512 30.7774 29.2871 30.7365 29.3672C29.8858 30.1152 28.5728 30.5263 27.4488 30.442C26.1688 30.346 25.6492 30.093 24.5842 29.5187C24.5243 29.3724 24.2758 29.2155 24.1372 29.1148C22.2585 27.7551 20.7923 25.2807 21.1035 22.9103C21.477 20.0649 24.4035 19.0764 26.4986 17.723C26.5168 17.7081 26.5351 17.6931 26.5533 17.6782C26.6637 17.5725 26.9079 17.4021 27.0395 17.3041C27.4736 16.8522 29.2363 15.7139 29.7998 15.4337Z" fill="#FE5648"/><path d="M26.884 12.2357C29.4044 11.619 32.1595 11.7383 34.4092 13.13C34.7103 13.3161 35.2421 13.6978 35.4342 13.9898C36.3527 14.5473 37.2668 16.7228 37.5214 17.7712C37.6453 18.2926 37.7326 18.8219 37.7834 19.3554C37.8021 20.3413 37.8247 21.314 37.6709 22.2921C37.1395 25.6698 34.7642 31.2001 32.395 33.6736C31.9826 34.1042 31.5125 34.4614 31.015 34.7877C30.8347 34.9058 30.591 35.0192 30.4294 35.157C30.329 35.3581 29.6082 35.5732 29.3723 35.6518L29.1667 35.7196C28.7996 35.8282 28.4207 35.8938 28.038 35.9156C24.8347 36.0708 23.0187 34.7713 20.2952 32.0057C21.6667 31.0459 23.5784 30.1769 24.5843 29.5186C25.6492 30.0929 26.1688 30.3459 27.4488 30.442C28.5728 30.5262 29.8858 30.1151 30.7365 29.3672C30.7774 29.2871 31.3583 28.6512 31.4552 28.5417C32.4501 27.416 32.9589 26.0113 33.5598 24.6608C33.7075 24.3285 33.9991 23.6288 34.1968 23.3459L34.3814 22.9321C34.487 22.7722 34.7533 22.1193 34.8324 21.9215C35.4246 20.4409 35.7883 18.7895 35.1122 17.2693C34.696 16.3124 33.9152 15.5612 32.9424 15.1826C31.8297 14.7601 30.8447 14.9697 29.7998 15.4336C29.2363 15.7138 27.4736 16.8522 27.0395 17.304C26.9079 17.402 26.6637 17.5725 26.5533 17.6781C25.5697 15.8315 23.7622 14.7314 21.8752 14.0106C23.3712 13.2375 25.2464 12.6054 26.884 12.2357Z" fill="#ECAD4A"/><path d="M40.9143 27.9551C41.2749 29.3518 41.4101 30.5954 41.3979 32.0231C41.3623 36.1586 38.2574 39.0996 34.4188 40.0798C33.0867 40.42 32.0143 40.4612 30.6327 40.3335C30.8599 40.0311 31.2562 39.4976 31.4326 39.1826C31.5273 39.0896 32.2177 37.9586 32.3406 37.7648C33.1653 36.464 33.9135 35.1705 34.8424 33.9383C36.576 31.6386 38.844 29.9415 40.9143 27.9551Z" fill="#83E4DC"/><path d="M26.5885 6.72476C26.8705 6.63717 27.189 6.51864 27.4649 6.40998C31.7923 4.70476 36.8701 6.06304 39.0538 10.3565C39.7621 11.748 39.9928 12.8688 40.1983 14.3941C38.4395 13.4611 36.5782 12.7583 34.7351 12.0391C32.3511 11.1086 30.2999 9.93403 28.3808 8.23276C27.9398 7.84177 27.076 7.03733 26.5876 6.74787L26.5885 6.72476Z" fill="#76DCA3"/><path d="M40.2117 14.4249C42.1178 15.5569 43.4938 17.0098 44.0513 19.2081C44.8846 22.4964 43.3965 25.7594 40.9234 27.9312C40.7827 27.3929 40.6666 26.7182 40.5537 26.1649C40.2283 24.5646 39.9606 22.9625 39.9745 21.3243C39.988 19.701 40.2039 18.0918 40.2613 16.4687C40.2856 15.7771 40.2287 15.1154 40.2117 14.4249Z" fill="#5BC8CE"/><path d="M8.85483 10.8904C8.83085 12.27 8.83993 13.6109 8.94386 14.9882C8.96423 15.2578 8.98387 15.5788 8.98131 15.8484L8.97331 15.8725C7.90192 16.8379 7.01119 18.6183 6.95505 20.073C6.90383 21.4014 7.42073 22.9704 8.11794 24.0832L8.11308 24.1332C7.85391 25.2277 7.53735 26.3112 7.29364 27.4105C7.26001 27.5622 7.20831 27.828 7.15704 27.9713C3.305 25.7614 1.00007 22.3537 2.42487 17.757C3.32824 14.8423 6.15899 12.2536 8.85483 10.8904Z" fill="#6CB3EB"/><path d="M23.8887 37.5758C25.5719 38.7772 27.5462 39.7482 29.5704 40.0697C29.9089 40.1236 30.2143 40.2713 30.5797 40.2188C30.9347 39.985 31.1089 39.289 31.4326 39.1825C31.2562 39.4975 30.86 40.0311 30.6327 40.3335C29.0982 42.4464 27.0165 44.3685 24.3397 44.7313C20.9205 45.1949 17.7151 43.9284 16.0128 40.8679C18.5848 40.7953 20.4375 40.038 22.5583 38.6012C22.9924 38.307 23.4586 37.9004 23.8887 37.5758Z" fill="#5BC8CE"/><path d="M21.8317 14.021L21.8751 14.0106C23.7621 14.7314 25.5696 15.8315 26.5532 17.6782C26.535 17.6931 26.5167 17.7081 26.4985 17.723C24.4034 19.0764 21.4769 20.0648 21.1034 22.9103C20.7922 25.2807 22.2584 27.7551 24.1371 29.1148C24.2757 29.2155 24.5242 29.3724 24.5842 29.5186C23.919 30.388 22.1432 31.5541 20.4673 32.1797C20.2953 32.0894 19.7143 31.4357 19.5747 31.2832C17.0088 28.4829 14.3708 25.1023 15.4103 21.0475C16.0395 18.5929 17.7119 16.7219 19.7575 15.2979C20.4289 14.8306 21.132 14.4447 21.8317 14.021Z" fill="#D8C35C"/>
    </svg>
  </g>
</svg>
