<svg width="276" height="50" viewBox="0 0 276 50" fill="none" xmlns="http://www.w3.org/2000/svg">
<path d="M9.87949 12.4417C10.0144 7.54033 12.6864 4.09997 17.7265 3.62277C21.6486 3.25146 24.8021 5.9138 27.5885 8.31263C27.8704 8.22504 28.1889 8.10651 28.4648 7.99784C32.7923 6.29263 37.8701 7.65091 40.0538 11.9443C40.762 13.3359 40.9927 14.4567 41.1982 15.982L41.2117 16.0128C43.1178 17.1448 44.4938 18.5976 45.0512 20.796C45.8846 24.0842 44.3964 27.3473 41.9234 29.5191L41.9142 29.5429C42.2749 30.9397 42.41 32.1833 42.3978 33.611C42.3622 37.7464 39.2574 40.6874 35.4187 41.6676C34.0866 42.0078 33.0143 42.0491 31.6326 41.9213C31.8599 41.6189 32.2561 41.0854 32.4325 40.7704C32.1088 40.8769 31.9346 41.5729 31.5796 41.8066C31.2142 41.8592 30.9088 41.7115 30.5703 41.6576C28.5461 41.3361 26.5718 40.365 24.8886 39.1637C24.4584 39.4882 23.9922 39.8949 23.5582 40.1891C21.4374 41.6259 19.5847 42.3832 17.0127 42.4558L16.9884 42.4514C16.2286 42.4714 15.4693 42.4006 14.7263 42.2407C12.493 41.768 10.2657 40.5297 9.0183 38.5767C7.21019 35.7456 7.5076 32.6669 8.15958 29.5801L8.15702 29.5592C8.20829 29.4159 8.25999 29.1501 8.29362 28.9984C8.53732 27.8991 8.85389 26.8156 9.11306 25.7211L9.11792 25.6711C8.42071 24.5583 7.9038 22.9893 7.95503 21.6609C8.01116 20.2062 8.9019 18.4258 9.97329 17.4604L9.98129 17.4363C9.98385 17.1667 9.96421 16.8457 9.94383 16.5761C9.8399 15.1988 9.83082 13.8579 9.85481 12.4783L9.87949 12.4417Z" fill="#59D1A6"/>
<path d="M9.87948 12.4417C10.0144 7.54033 12.6864 4.09997 17.7265 3.62277C21.6486 3.25146 24.8021 5.9138 27.5885 8.31263L27.5876 8.33574C26.6926 8.73208 25.8218 9.18073 24.9794 9.67938C24.5236 9.94694 23.1424 10.9092 22.807 11.0106L22.8011 11.0188C24.0961 11.2918 27.0367 12.8717 27.8839 13.8237C26.2463 14.1934 24.3711 14.8255 22.8751 15.5985C24.7621 16.3193 26.5696 17.4194 27.5533 19.2661C27.535 19.281 27.5168 19.296 27.4985 19.3109C25.4034 20.6643 22.4769 21.6527 22.1034 24.4982C21.7922 26.8686 23.2584 29.343 25.1371 30.7027C25.2757 30.8034 25.5242 30.9603 25.5842 31.1065C24.7677 32.1737 21.669 32.8751 21.2951 33.5936C22.7268 35.0474 24.8317 37.0008 26.9246 37.2711C26.7025 37.51 26.474 37.7425 26.239 37.9684C25.983 38.1831 25.111 39.0155 24.912 39.112L24.8886 39.1637C24.4584 39.4882 23.9922 39.8949 23.5582 40.1891C21.4374 41.6259 19.5847 42.3832 17.0127 42.4558L16.9884 42.4514C16.2286 42.4714 15.4693 42.4006 14.7263 42.2407C12.493 41.768 10.2657 40.5297 9.0183 38.5767C7.21019 35.7456 7.5076 32.6669 8.15958 29.5801L8.15702 29.5592C8.20829 29.4159 8.25999 29.1501 8.29362 28.9984C8.53732 27.8991 8.85389 26.8156 9.11306 25.7211L9.11792 25.6711C8.42071 24.5583 7.9038 22.9893 7.95503 21.6609C8.01116 20.2062 8.9019 18.4258 9.97329 17.4604L9.98128 17.4363C9.98385 17.1667 9.96421 16.8457 9.94383 16.5761C9.8399 15.1988 9.83082 13.8579 9.85481 12.4783L9.87948 12.4417Z" fill="#5BC8CE"/>
<path d="M9.11306 25.7211C10.8306 28.5557 12.6644 31.1394 15.5855 32.9141C15.9885 33.1591 16.7372 33.525 17.1892 33.6488C17.6176 33.84 18.3033 33.9894 18.7701 34.0611C19.3049 34.0928 21.0292 34.2114 21.3723 33.8195L21.4833 33.7736C22.9149 35.2274 24.8317 37.0008 26.9246 37.2711C26.7025 37.51 26.474 37.7425 26.239 37.9684C25.983 38.1831 25.111 39.0155 24.912 39.112L24.8886 39.1637C24.4584 39.4882 23.9922 39.8949 23.5582 40.1891C21.4374 41.6259 19.5847 42.3832 17.0127 42.4558L16.9884 42.4514C16.2286 42.4714 15.4693 42.4006 14.7263 42.2407C12.493 41.768 10.2657 40.5297 9.0183 38.5767C7.21019 35.7456 7.5076 32.6669 8.15958 29.5801L8.15702 29.5592C8.20829 29.4159 8.25999 29.1501 8.29362 28.9984C8.53732 27.8991 8.85389 26.8156 9.11306 25.7211Z" fill="#3D96CD"/>
<path d="M8.15958 29.5801C8.7185 29.8448 9.25566 30.2522 9.80193 30.5495C11.5807 31.5178 13.226 32.7928 14.1389 34.6476C15.2448 36.8948 15.5229 39.4708 16.6337 41.7171C16.7428 41.9378 16.9046 42.2263 16.9884 42.4514C16.2286 42.4714 15.4693 42.4006 14.7263 42.2407C12.493 41.7679 10.2657 40.5297 9.0183 38.5767C7.21019 35.7456 7.5076 32.6668 8.15958 29.5801Z" fill="#73A9F6"/>
<path d="M21.467 33.7683C22.9274 35.1974 24.8317 37.0009 26.9247 37.2711C26.7026 37.5101 26.4741 37.7426 26.239 37.9685C25.9831 38.1831 25.1111 39.0156 24.9121 39.112C24.3925 38.7041 23.829 38.3547 23.2954 37.9007C22.4013 37.1399 21.5061 36.3605 20.6102 35.6045C20.2738 35.3207 18.982 34.3501 18.7701 34.0612C19.1772 34.0853 20.6271 34.1593 21.467 33.7683Z" fill="#7CB685"/>
<path d="M9.87952 12.4417C10.0144 7.54033 12.6864 4.09997 17.7265 3.62277C21.6486 3.25146 24.8022 5.9138 27.5885 8.31263L27.5876 8.33574C26.6926 8.73208 25.8219 9.18072 24.9794 9.67938C24.5236 9.94694 23.1424 10.9092 22.807 11.0106C22.0932 10.8061 21.4222 10.616 20.6906 10.4929C17.2002 9.90544 13.5419 10.634 10.3907 12.1895C10.2304 12.2686 10.041 12.374 9.87952 12.4417Z" fill="#5BC8CE"/>
<path d="M9.87945 12.4417C10.0409 12.374 10.2303 12.2686 10.3906 12.1895C13.5418 10.634 17.2001 9.90545 20.6906 10.4929C21.4221 10.616 22.0932 10.8061 22.807 11.0106L22.8011 11.0188C24.096 11.2918 27.0366 12.8717 27.8839 13.8237C26.2463 14.1934 24.3711 14.8255 22.8751 15.5985L22.8317 15.6089C21.0372 14.9877 19.9929 14.9425 18.1739 14.7769L18.0426 14.7873C15.217 14.7875 12.061 15.3814 9.98125 17.4363C9.98381 17.1667 9.96417 16.8457 9.94379 16.5761C9.83987 15.1988 9.83079 13.8579 9.85477 12.4783L9.87945 12.4417Z" fill="#2FA9C1"/>
<path d="M22.8012 11.0188C24.0961 11.2918 27.0367 12.8717 27.8839 13.8236C26.2463 14.1933 24.3711 14.8255 22.8751 15.5985L22.8317 15.6089C21.0372 14.9877 19.9929 14.9424 18.174 14.7769C18.299 14.5825 18.6518 14.2981 18.8331 14.1313C20.0759 12.9884 21.4346 12.0072 22.8012 11.0188Z" fill="#76DCA3"/>
<path d="M30.7998 17.0215C31.8447 16.5577 32.8297 16.3481 33.9424 16.7705C34.9152 17.1492 35.696 17.9003 36.1122 18.8573C36.7883 20.3774 36.4246 22.0288 35.8324 23.5095C35.7533 23.7072 35.487 24.3602 35.3814 24.52L35.1968 24.9338C34.9991 25.2168 34.7075 25.9164 34.5598 26.2487C33.9589 27.5993 33.4501 29.004 32.4552 30.1297C32.3583 30.2391 31.7774 30.875 31.7365 30.9551C30.8858 31.7031 29.5728 32.1142 28.4488 32.0299C27.1688 31.9339 26.6492 31.6809 25.5842 31.1065C25.5243 30.9603 25.2758 30.8034 25.1372 30.7027C23.2585 29.343 21.7923 26.8686 22.1035 24.4982C22.477 21.6527 25.4035 20.6643 27.4986 19.3109C27.5168 19.296 27.5351 19.281 27.5533 19.2661C27.6637 19.1604 27.9079 18.99 28.0395 18.892C28.4736 18.4401 30.2363 17.3018 30.7998 17.0215Z" fill="#FE5648"/>
<path d="M27.884 13.8236C30.4044 13.2069 33.1595 13.3262 35.4092 14.7179C35.7103 14.904 36.2421 15.2857 36.4342 15.5777C37.3527 16.1352 38.2668 18.3106 38.5214 19.3591C38.6453 19.8805 38.7326 20.4098 38.7834 20.9433C38.8021 21.9292 38.8247 22.9019 38.6709 23.88C38.1395 27.2577 35.7642 32.788 33.395 35.2615C32.9826 35.6921 32.5125 36.0492 32.015 36.3755C31.8347 36.4937 31.591 36.6071 31.4294 36.7449C31.329 36.946 30.6082 37.1611 30.3723 37.2397L30.1667 37.3075C29.7996 37.4161 29.4207 37.4817 29.038 37.5035C25.8347 37.6587 24.0187 36.3592 21.2952 33.5935C22.6667 32.6338 24.5784 31.7648 25.5843 31.1065C26.6492 31.6808 27.1688 31.9338 28.4488 32.0298C29.5728 32.1141 30.8858 31.703 31.7365 30.9551C31.7774 30.8749 32.3583 30.2391 32.4552 30.1296C33.4501 29.0039 33.9589 27.5992 34.5598 26.2487C34.7075 25.9164 34.9991 25.2167 35.1968 24.9338L35.3814 24.52C35.487 24.3601 35.7533 23.7072 35.8324 23.5094C36.4246 22.0288 36.7883 20.3773 36.1122 18.8572C35.696 17.9003 34.9152 17.1491 33.9424 16.7705C32.8297 16.348 31.8447 16.5576 30.7998 17.0215C30.2363 17.3017 28.4736 18.4401 28.0395 18.8919C27.9079 18.9899 27.6637 19.1604 27.5533 19.266C26.5697 17.4194 24.7622 16.3193 22.8752 15.5985C24.3712 14.8254 26.2464 14.1933 27.884 13.8236Z" fill="#ECAD4A"/>
<path d="M41.9143 29.543C42.2749 30.9397 42.4101 32.1833 42.3979 33.611C42.3623 37.7464 39.2574 40.6875 35.4188 41.6677C34.0867 42.0079 33.0143 42.0491 31.6327 41.9214C31.8599 41.619 32.2562 41.0855 32.4326 40.7705C32.5273 40.6775 33.2177 39.5465 33.3406 39.3527C34.1653 38.0519 34.9135 36.7584 35.8424 35.5262C37.576 33.2265 39.844 31.5294 41.9143 29.543Z" fill="#83E4DC"/>
<path d="M27.5885 8.31265C27.8705 8.22506 28.189 8.10653 28.4649 7.99787C32.7923 6.29265 37.8701 7.65093 40.0538 11.9444C40.7621 13.3359 40.9928 14.4567 41.1983 15.982C39.4395 15.049 37.5782 14.3462 35.7351 13.6269C33.3511 12.6965 31.2999 11.5219 29.3808 9.82066C28.9398 9.42966 28.076 8.62522 27.5876 8.33577L27.5885 8.31265Z" fill="#76DCA3"/>
<path d="M41.2117 16.0128C43.1178 17.1448 44.4938 18.5976 45.0513 20.796C45.8846 24.0843 44.3965 27.3473 41.9234 29.5191C41.7827 28.9808 41.6666 28.306 41.5537 27.7528C41.2283 26.1525 40.9606 24.5504 40.9745 22.9122C40.988 21.2889 41.2039 19.6797 41.2613 18.0566C41.2856 17.365 41.2287 16.7033 41.2117 16.0128Z" fill="#5BC8CE"/>
<path d="M9.85483 12.4783C9.83085 13.8579 9.83993 15.1988 9.94386 16.5761C9.96423 16.8457 9.98387 17.1667 9.98131 17.4362L9.97331 17.4604C8.90192 18.4258 8.01119 20.2062 7.95505 21.6609C7.90383 22.9892 8.42073 24.5583 9.11794 25.6711L9.11308 25.7211C8.85391 26.8156 8.53735 27.8991 8.29364 28.9984C8.26001 29.1501 8.20831 29.4159 8.15704 29.5592C4.305 27.3493 2.00007 23.9416 3.42487 19.3448C4.32824 16.4302 7.15899 13.8415 9.85483 12.4783Z" fill="#6CB3EB"/>
<path d="M24.8887 39.1637C26.5719 40.365 28.5462 41.3361 30.5704 41.6576C30.9089 41.7115 31.2143 41.8592 31.5797 41.8067C31.9347 41.5729 32.1089 40.8769 32.4326 40.7704C32.2562 41.0854 31.86 41.619 31.6327 41.9214C30.0982 44.0343 28.0165 45.9564 25.3397 46.3192C21.9205 46.7828 18.7151 45.5163 17.0128 42.4558C19.5848 42.3832 21.4375 41.6259 23.5583 40.1891C23.9924 39.8949 24.4586 39.4883 24.8887 39.1637Z" fill="#5BC8CE"/>
<path d="M22.8317 15.6089L22.8751 15.5985C24.7621 16.3193 26.5696 17.4194 27.5532 19.2661C27.535 19.281 27.5167 19.296 27.4985 19.3109C25.4034 20.6643 22.4769 21.6527 22.1034 24.4982C21.7922 26.8686 23.2584 29.343 25.1371 30.7027C25.2757 30.8034 25.5242 30.9603 25.5842 31.1065C24.919 31.9759 23.1432 33.142 21.4673 33.7676C21.2953 33.6773 20.7143 33.0235 20.5747 32.871C18.0088 30.0708 15.3708 26.6902 16.4103 22.6354C17.0395 20.1808 18.7119 18.3098 20.7575 16.8858C21.4289 16.4185 22.132 16.0326 22.8317 15.6089Z" fill="#D8C35C"/>
<path d="M133.823 17.1085C136.076 16.89 138.197 17.2357 139.669 19.1505C139.673 18.5532 139.706 17.987 139.739 17.3917L143.156 17.3741C143.178 17.9724 143.175 18.5883 143.171 19.1886C143.143 23.379 143.264 27.5696 143.152 31.756C143.019 36.6999 139.26 39.3149 134.551 38.9181C132.53 38.7478 130.558 37.9942 129.234 36.3966C128.894 35.9866 128.264 35.334 128.309 34.7892L128.584 34.5831C129.485 34.153 130.397 33.7434 131.318 33.3546C132.251 34.801 133.371 35.7021 135.148 35.7374C139.105 35.814 139.485 33.3204 139.487 30.2521C138.517 31.219 137.652 31.8019 136.277 32.09C134.419 32.4778 132.482 32.0997 130.905 31.0401C129.249 29.914 128.118 28.1619 127.771 26.1866C126.965 21.7846 129.377 17.9375 133.823 17.1085ZM135.854 28.9464C141.477 28.0395 140.271 19.7619 134.979 20.337C129.696 21.1934 130.254 29.1257 135.854 28.9464Z" fill="#B6CEE3"/>
<path d="M107.723 32.4995L104.219 32.5054L104.211 30.7358C101.931 33.093 99.2119 33.3756 96.2572 32.187C95.5687 31.8556 94.9373 31.416 94.3861 30.8862C89.677 26.3109 92.3556 16.8065 99.4496 17.0513C101.464 17.1208 102.613 17.5517 104.037 18.9819L104.052 11.0454L107.723 11.0425V32.4995ZM100.502 29.5835C106.086 28.2911 104.713 19.8632 99.6078 20.3413C98.4798 20.5065 97.2535 20.9711 96.6537 21.9663C94.5391 25.4738 96.2098 29.6953 100.502 29.5835Z" fill="#B6CEE3"/>
<path d="M160.098 17.0158C164.473 16.2735 168.618 19.2279 169.356 23.6125C170.094 27.9962 167.143 32.1504 162.768 32.8869C158.397 33.6223 154.257 30.6691 153.519 26.2883C152.783 21.9074 155.727 17.7562 160.098 17.0158ZM162.037 29.5695C167.6 28.5169 166.698 19.8114 160.881 20.34C155.55 21.2325 155.767 29.8139 162.037 29.5695Z" fill="#B6CEE3"/>
<path d="M80.6412 17.0348C84.9932 16.2713 89.1411 19.183 89.9137 23.5416C90.6861 27.9012 87.7919 32.0655 83.444 32.8512C79.0807 33.6387 74.9079 30.7257 74.1324 26.3512C73.357 21.9764 76.274 17.8014 80.6412 17.0348ZM82.7223 29.5475C88.2126 28.264 87.1484 19.8499 81.3863 20.3395C75.9087 21.5081 76.6088 29.9796 82.7223 29.5475Z" fill="#B6CEE3"/>
<path d="M180.214 17.3916L183.622 17.3755L186.727 27.3752C187.735 24.2907 188.739 20.5375 189.657 17.3966L193.513 17.3795L192.218 21.2849C191.036 25.0372 189.82 28.7784 188.568 32.5085L184.995 32.5024C184.212 29.6386 182.896 25.295 181.905 22.5209C180.931 25.836 179.86 29.1994 178.829 32.5034L175.282 32.4974C174.829 30.8947 174.165 29.001 173.641 27.3872L170.359 17.3846H174.255C175.182 20.6674 176.17 24.1054 177.166 27.3671L180.214 17.3916Z" fill="#B6CEE3"/>
<path d="M118.292 17.055C121.762 17.0711 124.507 19.1135 125.354 22.5374C125.665 23.7912 125.63 24.74 125.608 26.0169C121.802 26.0411 117.916 25.961 114.127 26.0325C115.263 30.1875 119.542 31.0236 122.138 27.637L122.828 27.9642L125.259 29.1009C123.887 30.9764 122.629 32.1828 120.259 32.6644C118.081 33.1066 115.634 32.7902 113.777 31.515C112.098 30.3535 110.956 28.5646 110.609 26.5501C109.764 21.8934 112.326 17.9307 117.025 17.1126C117.446 17.0713 117.869 17.052 118.292 17.055ZM117.486 20.1253C115.619 20.5484 114.694 21.3915 114.275 23.2972L118.553 23.3128C119.624 23.3108 120.836 23.3362 121.896 23.304C121.214 20.9531 120.018 19.9139 117.486 20.1253Z" fill="#B6CEE3"/>
<path d="M64.6192 17.1137C67.7858 16.7691 70.4145 17.9971 71.1466 21.3414C71.4781 22.8564 71.3632 24.6575 71.3608 26.2178L71.3461 32.4954L67.69 32.4985C67.6995 30.4193 67.9998 23.7519 67.4058 22.1885C67.1309 21.4653 66.6168 20.8518 65.8998 20.5406C64.9031 20.1074 63.8434 20.326 62.8693 20.6917C60.7503 22.0838 61.1261 24.6454 61.1287 26.8897L61.1332 32.5005L57.4271 32.4944L57.4303 17.3876L60.878 17.3886L60.8992 19.2794C62.0251 17.8843 62.8895 17.4148 64.6192 17.1137Z" fill="#B6CEE3"/>
<path d="M146.757 11.0435H150.512C150.624 18.0977 150.526 25.4189 150.522 32.4913L146.75 32.4984L146.757 11.0435Z" fill="#B6CEE3"/>
<rect x="211.194" y="18.6967" width="15.4513" height="2.37712" transform="rotate(45 211.194 18.6967)" fill="#D9D9D9"/>
<rect width="15.4513" height="2.37712" transform="matrix(-0.707107 0.707107 0.707107 0.707107 220.439 18.6967)" fill="#D9D9D9"/>
<g clip-path="url(#clip0_86_474)">
<path d="M272.134 7.80994H238.214V42.1095H272.134V7.80994Z" fill="#3DDA83"/>
<path d="M244.632 30.0747L252.263 18.8531" stroke="black" stroke-width="1.60808" stroke-miterlimit="1.5" stroke-linejoin="round"/>
<path d="M251.802 30.0379L259.106 19.3259L266.427 30.021" stroke="black" stroke-width="1.58406" stroke-miterlimit="1.5" stroke-linejoin="round"/>
</g>
<defs>
<clipPath id="clip0_86_474">
<rect width="34" height="34" fill="white" transform="translate(235.12 8)"/>
</clipPath>
</defs>
</svg>
